<mxfile host="app.diagrams.net" modified="2023-11-16T15:22:44.392Z" agent="Mozilla/5.0 (X11; Linux x86_64; rv:109.0) Gecko/20100101 Firefox/119.0" etag="MKu3A-boTn7uJnPNoBBc" version="22.1.2" type="device">
  <diagram name="Page-1" id="_xhGmXa4dSZ1Pfg6dVDB">
    <mxGraphModel dx="845" dy="585" grid="1" gridSize="10" guides="1" tooltips="1" connect="1" arrows="1" fold="1" page="1" pageScale="1" pageWidth="850" pageHeight="1100" math="0" shadow="0">
      <root>
        <mxCell id="0" />
        <mxCell id="1" parent="0" />
        <mxCell id="o5PuLMqqPic89rms98tm-27" value="External Services" style="verticalAlign=top;align=left;spacingTop=8;spacingLeft=2;spacingRight=12;shape=cube;size=10;direction=south;fontStyle=4;html=1;whiteSpace=wrap;fillColor=#e1d5e7;strokeColor=#9673a6;" vertex="1" parent="1">
          <mxGeometry x="320" y="340" width="480" height="120" as="geometry" />
        </mxCell>
        <mxCell id="o5PuLMqqPic89rms98tm-2" value="Client web browser" style="verticalAlign=top;align=left;spacingTop=8;spacingLeft=2;spacingRight=12;shape=cube;size=10;direction=south;fontStyle=4;html=1;whiteSpace=wrap;fillColor=#ffe6cc;strokeColor=#d79b00;" vertex="1" parent="1">
          <mxGeometry x="130" y="200" width="140" height="120" as="geometry" />
        </mxCell>
        <mxCell id="o5PuLMqqPic89rms98tm-1" value="Javascript Web application" style="shape=module;align=left;spacingLeft=20;align=center;verticalAlign=top;whiteSpace=wrap;html=1;fillColor=#FFD7B0;strokeColor=#d79b00;" vertex="1" parent="1">
          <mxGeometry x="140" y="240" width="110" height="50" as="geometry" />
        </mxCell>
        <mxCell id="o5PuLMqqPic89rms98tm-3" value="Google Cloud Servers" style="verticalAlign=top;align=left;spacingTop=8;spacingLeft=2;spacingRight=12;shape=cube;size=10;direction=south;fontStyle=4;html=1;whiteSpace=wrap;fillColor=#dae8fc;strokeColor=#6c8ebf;" vertex="1" parent="1">
          <mxGeometry x="320" y="90" width="480" height="230" as="geometry" />
        </mxCell>
        <mxCell id="o5PuLMqqPic89rms98tm-4" value="Firebase Authentication" style="shape=module;align=left;spacingLeft=20;align=center;verticalAlign=top;whiteSpace=wrap;html=1;fillColor=#fff2cc;strokeColor=#d6b656;" vertex="1" parent="1">
          <mxGeometry x="350" y="140" width="110" height="50" as="geometry" />
        </mxCell>
        <mxCell id="o5PuLMqqPic89rms98tm-5" style="edgeStyle=orthogonalEdgeStyle;rounded=0;orthogonalLoop=1;jettySize=auto;html=1;exitX=1;exitY=0.5;exitDx=0;exitDy=0;entryX=0;entryY=0;entryDx=0;entryDy=15;entryPerimeter=0;startArrow=classic;startFill=1;" edge="1" parent="1" source="o5PuLMqqPic89rms98tm-1" target="o5PuLMqqPic89rms98tm-4">
          <mxGeometry relative="1" as="geometry" />
        </mxCell>
        <mxCell id="o5PuLMqqPic89rms98tm-8" style="edgeStyle=orthogonalEdgeStyle;rounded=0;orthogonalLoop=1;jettySize=auto;html=1;exitX=0.5;exitY=0;exitDx=0;exitDy=0;entryX=0.5;entryY=1;entryDx=0;entryDy=0;startArrow=classic;startFill=1;" edge="1" parent="1" source="o5PuLMqqPic89rms98tm-6" target="o5PuLMqqPic89rms98tm-4">
          <mxGeometry relative="1" as="geometry" />
        </mxCell>
        <mxCell id="o5PuLMqqPic89rms98tm-16" style="edgeStyle=orthogonalEdgeStyle;rounded=0;orthogonalLoop=1;jettySize=auto;html=1;exitX=1;exitY=0.5;exitDx=0;exitDy=0;entryX=0;entryY=0;entryDx=0;entryDy=35;entryPerimeter=0;" edge="1" parent="1" source="o5PuLMqqPic89rms98tm-6" target="o5PuLMqqPic89rms98tm-9">
          <mxGeometry relative="1" as="geometry">
            <mxPoint x="477" y="270.3333333333333" as="targetPoint" />
            <Array as="points">
              <mxPoint x="476" y="255" />
              <mxPoint x="476" y="265" />
            </Array>
          </mxGeometry>
        </mxCell>
        <mxCell id="o5PuLMqqPic89rms98tm-6" value="&lt;div&gt;API&lt;/div&gt;&lt;div&gt;Frontend&lt;br&gt;&lt;/div&gt;" style="shape=module;align=left;spacingLeft=20;align=center;verticalAlign=top;whiteSpace=wrap;html=1;fillColor=#d5e8d4;strokeColor=#82b366;" vertex="1" parent="1">
          <mxGeometry x="350" y="230" width="110" height="50" as="geometry" />
        </mxCell>
        <mxCell id="o5PuLMqqPic89rms98tm-9" value="&lt;div&gt;Cloud&lt;/div&gt;&lt;div&gt;Pub/Sub&lt;br&gt;&lt;/div&gt;" style="shape=module;align=left;spacingLeft=20;align=center;verticalAlign=top;whiteSpace=wrap;html=1;fillColor=#f8cecc;strokeColor=#b85450;" vertex="1" parent="1">
          <mxGeometry x="495" y="230" width="110" height="50" as="geometry" />
        </mxCell>
        <mxCell id="o5PuLMqqPic89rms98tm-10" value="&lt;div&gt;Booking&lt;/div&gt;&lt;div&gt;Web Worker&lt;/div&gt;&lt;div&gt;Instances&lt;br&gt;&lt;/div&gt;" style="shape=module;align=left;spacingLeft=20;align=center;verticalAlign=top;whiteSpace=wrap;html=1;fillColor=#d5e8d4;strokeColor=#82b366;" vertex="1" parent="1">
          <mxGeometry x="660" y="240" width="110" height="60" as="geometry" />
        </mxCell>
        <mxCell id="o5PuLMqqPic89rms98tm-11" value="&lt;div&gt;Firestore&lt;/div&gt;&lt;div&gt;NoSQL Database&lt;br&gt;&lt;/div&gt;" style="shape=module;align=left;spacingLeft=20;align=center;verticalAlign=top;whiteSpace=wrap;html=1;fillColor=#e1d5e7;strokeColor=#9673a6;" vertex="1" parent="1">
          <mxGeometry x="495" y="140" width="110" height="60" as="geometry" />
        </mxCell>
        <mxCell id="o5PuLMqqPic89rms98tm-13" value="&lt;div&gt;Booking&lt;/div&gt;&lt;div&gt;Web Worker&lt;/div&gt;&lt;div&gt;Instances&lt;br&gt;&lt;/div&gt;" style="shape=module;align=left;spacingLeft=20;align=center;verticalAlign=top;whiteSpace=wrap;html=1;fillColor=#d5e8d4;strokeColor=#82b366;" vertex="1" parent="1">
          <mxGeometry x="650" y="230" width="110" height="60" as="geometry" />
        </mxCell>
        <mxCell id="o5PuLMqqPic89rms98tm-19" style="edgeStyle=orthogonalEdgeStyle;rounded=0;orthogonalLoop=1;jettySize=auto;html=1;exitX=0.5;exitY=0;exitDx=0;exitDy=0;entryX=1;entryY=0.5;entryDx=0;entryDy=0;" edge="1" parent="1" source="o5PuLMqqPic89rms98tm-14" target="o5PuLMqqPic89rms98tm-11">
          <mxGeometry relative="1" as="geometry" />
        </mxCell>
        <mxCell id="o5PuLMqqPic89rms98tm-14" value="&lt;div&gt;Booking&lt;/div&gt;&lt;div&gt;Web Worker&lt;/div&gt;&lt;div&gt;Instances&lt;br&gt;&lt;/div&gt;" style="shape=module;align=left;spacingLeft=20;align=center;verticalAlign=top;whiteSpace=wrap;html=1;fillColor=#d5e8d4;strokeColor=#82b366;" vertex="1" parent="1">
          <mxGeometry x="640" y="220" width="110" height="60" as="geometry" />
        </mxCell>
        <mxCell id="o5PuLMqqPic89rms98tm-17" style="edgeStyle=orthogonalEdgeStyle;rounded=0;orthogonalLoop=1;jettySize=auto;html=1;exitX=1;exitY=0.25;exitDx=0;exitDy=0;entryX=0;entryY=0;entryDx=0;entryDy=15;entryPerimeter=0;startArrow=classic;startFill=1;" edge="1" parent="1" source="o5PuLMqqPic89rms98tm-9" target="o5PuLMqqPic89rms98tm-14">
          <mxGeometry relative="1" as="geometry">
            <Array as="points">
              <mxPoint x="620" y="242" />
              <mxPoint x="620" y="235" />
            </Array>
          </mxGeometry>
        </mxCell>
        <mxCell id="o5PuLMqqPic89rms98tm-20" style="edgeStyle=orthogonalEdgeStyle;rounded=0;orthogonalLoop=1;jettySize=auto;html=1;exitX=1;exitY=0.25;exitDx=0;exitDy=0;entryX=0;entryY=0;entryDx=0;entryDy=35;entryPerimeter=0;" edge="1" parent="1" source="o5PuLMqqPic89rms98tm-6" target="o5PuLMqqPic89rms98tm-11">
          <mxGeometry relative="1" as="geometry">
            <Array as="points">
              <mxPoint x="475" y="243" />
              <mxPoint x="475" y="175" />
            </Array>
          </mxGeometry>
        </mxCell>
        <mxCell id="o5PuLMqqPic89rms98tm-21" value="&lt;div&gt;reliabletrains.com&lt;/div&gt;&lt;div&gt;API&lt;br&gt;&lt;/div&gt;" style="shape=module;align=left;spacingLeft=20;align=center;verticalAlign=top;whiteSpace=wrap;html=1;fillColor=#b0e3e6;strokeColor=#0e8088;" vertex="1" parent="1">
          <mxGeometry x="390" y="390" width="135" height="50" as="geometry" />
        </mxCell>
        <mxCell id="o5PuLMqqPic89rms98tm-22" value="&lt;div&gt;unreliabletrains.com&lt;/div&gt;&lt;div&gt;API&lt;br&gt;&lt;/div&gt;" style="shape=module;align=left;spacingLeft=20;align=center;verticalAlign=top;whiteSpace=wrap;html=1;fillColor=#bac8d3;strokeColor=#23445d;" vertex="1" parent="1">
          <mxGeometry x="560" y="390" width="150" height="50" as="geometry" />
        </mxCell>
        <mxCell id="o5PuLMqqPic89rms98tm-23" value="" style="endArrow=classic;startArrow=classic;html=1;rounded=0;entryX=0.5;entryY=1;entryDx=0;entryDy=0;exitX=0.5;exitY=0;exitDx=0;exitDy=0;" edge="1" parent="1" source="o5PuLMqqPic89rms98tm-21" target="o5PuLMqqPic89rms98tm-6">
          <mxGeometry width="50" height="50" relative="1" as="geometry">
            <mxPoint x="270" y="430" as="sourcePoint" />
            <mxPoint x="320" y="380" as="targetPoint" />
          </mxGeometry>
        </mxCell>
        <mxCell id="o5PuLMqqPic89rms98tm-24" value="" style="endArrow=classic;startArrow=classic;html=1;rounded=0;entryX=0.75;entryY=1;entryDx=0;entryDy=0;exitX=0.5;exitY=0;exitDx=0;exitDy=0;" edge="1" parent="1" source="o5PuLMqqPic89rms98tm-22" target="o5PuLMqqPic89rms98tm-6">
          <mxGeometry width="50" height="50" relative="1" as="geometry">
            <mxPoint x="510" y="370" as="sourcePoint" />
            <mxPoint x="440" y="280" as="targetPoint" />
          </mxGeometry>
        </mxCell>
        <mxCell id="o5PuLMqqPic89rms98tm-25" value="" style="endArrow=classic;startArrow=classic;html=1;rounded=0;entryX=0.5;entryY=1;entryDx=0;entryDy=0;exitX=0.75;exitY=0;exitDx=0;exitDy=0;" edge="1" parent="1" source="o5PuLMqqPic89rms98tm-21" target="o5PuLMqqPic89rms98tm-14">
          <mxGeometry width="50" height="50" relative="1" as="geometry">
            <mxPoint x="780" y="420" as="sourcePoint" />
            <mxPoint x="710" y="330" as="targetPoint" />
          </mxGeometry>
        </mxCell>
        <mxCell id="o5PuLMqqPic89rms98tm-26" value="" style="endArrow=classic;startArrow=classic;html=1;rounded=0;entryX=0.75;entryY=1;entryDx=0;entryDy=0;exitX=0.75;exitY=0;exitDx=0;exitDy=0;" edge="1" parent="1" source="o5PuLMqqPic89rms98tm-22" target="o5PuLMqqPic89rms98tm-14">
          <mxGeometry width="50" height="50" relative="1" as="geometry">
            <mxPoint x="690" y="440" as="sourcePoint" />
            <mxPoint x="885" y="350" as="targetPoint" />
          </mxGeometry>
        </mxCell>
        <mxCell id="o5PuLMqqPic89rms98tm-28" style="edgeStyle=orthogonalEdgeStyle;rounded=0;orthogonalLoop=1;jettySize=auto;html=1;exitX=1;exitY=0.5;exitDx=0;exitDy=0;entryX=0;entryY=0;entryDx=0;entryDy=35;entryPerimeter=0;" edge="1" parent="1" source="o5PuLMqqPic89rms98tm-1" target="o5PuLMqqPic89rms98tm-6">
          <mxGeometry relative="1" as="geometry" />
        </mxCell>
      </root>
    </mxGraphModel>
  </diagram>
</mxfile>
